<?xml version="1.0" standalone="no"?>
<!DOCTYPE svg PUBLIC "-//W3C//DTD SVG 20010904//EN"
 "http://www.w3.org/TR/2001/REC-SVG-20010904/DTD/svg10.dtd">
<svg version="1.0" xmlns="http://www.w3.org/2000/svg"
 width="700.000000pt" height="700.000000pt" viewBox="0 0 700.000000 700.000000"
 preserveAspectRatio="xMidYMid meet">
<metadata>
Created by potrace 1.14, written by Peter Selinger 2001-2017
</metadata>
<g transform="translate(0.000000,700.000000) scale(0.100000,-0.100000)"
fill="#000000" stroke="none">
<path d="M765 6994 c-11 -2 -45 -9 -75 -15 -303 -59 -557 -296 -657 -614 l-28
-90 -2 -2750 c-2 -2710 -2 -2751 17 -2834 42 -174 114 -306 233 -426 117 -118
238 -189 404 -237 l78 -23 1020 0 1020 0 87 27 c325 102 547 341 619 667 18
83 18 159 19 1885 0 990 2 1801 3 1803 2 1 122 -293 266 -655 144 -361 269
-670 276 -687 7 -16 71 -176 142 -355 72 -179 134 -334 138 -345 5 -11 9 -22
10 -25 1 -3 6 -16 12 -30 6 -14 169 -421 363 -905 193 -484 366 -905 383 -935
129 -230 373 -401 626 -438 99 -15 272 -7 354 16 102 29 429 162 498 203 200
117 342 310 404 549 40 156 27 387 -28 512 -8 18 -63 155 -122 303 -59 149
-113 284 -120 300 -7 17 -97 242 -200 500 -103 259 -196 489 -206 512 -11 23
-19 44 -19 47 0 3 -56 143 -124 313 -68 169 -174 434 -236 588 -61 154 -115
289 -120 300 -5 11 -73 180 -151 375 -77 195 -147 369 -154 385 -7 17 -153
380 -324 808 -171 428 -319 793 -327 810 -57 112 -212 285 -300 334 -190 107
-254 125 -459 129 -200 5 -233 -2 -465 -98 -204 -85 -228 -96 -293 -139 l-59
-39 -51 46 c-91 81 -185 139 -293 180 -142 53 -124 52 -1169 52 -533 0 -979
-2 -990 -4z m3408 -591 c55 -20 125 -82 149 -133 46 -98 227 -565 220 -571 -6
-6 -358 -151 -487 -201 -27 -11 -63 -26 -80 -33 -39 -18 -150 -63 -197 -80
l-36 -13 -75 186 c-159 396 -161 402 -161 472 1 77 28 143 83 198 42 42 63 53
221 118 36 14 79 32 95 39 42 18 66 26 95 32 13 2 26 6 28 8 8 8 101 -6 145
-22z m-2718 -423 l0 -435 -435 0 -435 0 0 325 c1 323 1 325 25 375 41 84 119
147 205 165 17 3 167 6 335 6 l305 -1 0 -435z m1287 412 c60 -26 117 -84 148
-147 23 -49 24 -54 25 -376 l2 -327 -438 0 -437 -1 0 432 c0 238 2 435 4 438
2 3 149 5 326 4 304 -2 326 -3 370 -23z m2219 -1714 c104 -260 194 -482 199
-493 5 -11 95 -236 200 -500 105 -264 195 -489 200 -500 5 -11 41 -101 80
-200 40 -99 103 -256 140 -350 157 -389 200 -499 200 -509 0 -6 -37 -25 -83
-43 -45 -17 -221 -88 -392 -158 -170 -69 -314 -127 -320 -128 -5 -1 -129 296
-275 660 -146 363 -272 678 -281 700 -9 21 -29 70 -44 108 -15 39 -34 84 -41
100 -7 17 -19 48 -27 70 -15 43 -221 557 -236 590 -9 19 -216 534 -251 625
-74 191 -71 180 -53 187 31 11 357 143 378 153 11 5 43 18 70 28 28 10 57 22
65 25 8 3 74 30 145 60 72 30 132 53 134 51 1 -1 88 -216 192 -476z m-3504
-1179 l1 -1456 -436 1 -437 1 -1 1450 c-1 798 1 1453 3 1457 2 3 198 6 436 5
l432 -2 2 -1456z m1458 1 l0 -1455 -435 0 -435 0 -1 1457 -2 1456 437 -1 436
-2 0 -1455z m3396 -2188 c116 -291 124 -332 87 -432 -37 -97 -88 -135 -294
-220 -160 -65 -186 -73 -245 -73 -107 0 -210 58 -255 144 -9 19 -61 143 -114
276 l-97 241 51 22 c49 20 495 202 526 213 8 4 62 26 120 50 58 24 108 42 112
40 3 -2 52 -119 109 -261z m-4856 -292 l0 -435 -325 0 c-320 1 -326 1 -373 24
-62 30 -118 86 -148 148 -23 47 -24 53 -25 375 l-1 326 436 -1 436 -2 0 -435z
m1460 112 c-1 -323 -2 -328 -25 -377 -31 -63 -82 -114 -145 -145 -49 -23 -53
-24 -375 -24 l-325 -1 -2 437 -2 436 438 0 438 1 -2 -327z"/>
</g>
</svg>
